<svg width="512" height="512" viewBox="0 0 512 512" fill="none" xmlns="http://www.w3.org/2000/svg">
<rect width="512" height="512" fill="#0F172A"/>
<path d="M370.5 350.5C401.5 330.5 425.5 295.5 425.5 255.5C425.5 186.5 369.5 130.5 300.5 130.5C269.5 130.5 241.5 141.5 219.5 160.5C210.5 156.5 200.5 154.5 190.5 154.5C135.5 154.5 90.5 199.5 90.5 254.5C90.5 295.5 115.5 330.5 150.5 345.5C150.5 345.5 175.5 390.5 240.5 410.5C240.5 410.5 220.5 370.5 230.5 355.5C230.5 355.5 320.5 380.5 370.5 350.5Z" stroke="white" stroke-width="25" stroke-linecap="round" stroke-linejoin="round"/>
<path d="M190.5 154.5C200.5 154.5 210.5 156.5 219.5 160.5C235.5 125.5 270.5 100.5 310.5 100.5C365.5 100.5 410.5 145.5 410.5 200.5C410.5 220.5 404.5 239.5 393.5 255.5" stroke="white" stroke-width="25" stroke-linecap="round" stroke-linejoin="round"/>
</svg>
